<mxfile host="app.diagrams.net" modified="2023-06-04T17:44:43.436Z" agent="Mozilla/5.0 (Macintosh; Intel Mac OS X 10_15_7) AppleWebKit/605.1.15 (KHTML, like Gecko) Version/16.3 Safari/605.1.15" etag="VQB-lQ7Z9hrKHbc9SlCl" version="21.3.7" type="github">
  <diagram name="Seite-1" id="km42QGE20vITECCyF_AU">
    <mxGraphModel dx="3088" dy="802" grid="1" gridSize="10" guides="1" tooltips="1" connect="1" arrows="1" fold="1" page="1" pageScale="1" pageWidth="827" pageHeight="1169" math="0" shadow="0">
      <root>
        <mxCell id="0" />
        <mxCell id="1" parent="0" />
        <mxCell id="C4-AITVvvZgNp1ijNYnp-1" value="Sektion" style="whiteSpace=wrap;html=1;align=center;" parent="1" vertex="1">
          <mxGeometry x="-97.43" y="183.75" width="100" height="40" as="geometry" />
        </mxCell>
        <mxCell id="C4-AITVvvZgNp1ijNYnp-64" style="edgeStyle=orthogonalEdgeStyle;shape=connector;curved=1;rounded=0;orthogonalLoop=1;jettySize=auto;html=1;exitX=1;exitY=0.5;exitDx=0;exitDy=0;entryX=0;entryY=0.5;entryDx=0;entryDy=0;labelBackgroundColor=default;strokeColor=default;fontFamily=Helvetica;fontSize=11;fontColor=default;endArrow=none;endFill=0;" parent="1" source="C4-AITVvvZgNp1ijNYnp-4" target="C4-AITVvvZgNp1ijNYnp-1" edge="1">
          <mxGeometry relative="1" as="geometry" />
        </mxCell>
        <mxCell id="C4-AITVvvZgNp1ijNYnp-4" value="Kurs" style="whiteSpace=wrap;html=1;align=center;" parent="1" vertex="1">
          <mxGeometry x="-407.43" y="183.75" width="100" height="40" as="geometry" />
        </mxCell>
        <mxCell id="C4-AITVvvZgNp1ijNYnp-51" style="edgeStyle=orthogonalEdgeStyle;shape=connector;curved=1;rounded=0;orthogonalLoop=1;jettySize=auto;html=1;exitX=1;exitY=1;exitDx=0;exitDy=0;entryX=0;entryY=0.25;entryDx=0;entryDy=0;labelBackgroundColor=default;strokeColor=default;fontFamily=Helvetica;fontSize=11;fontColor=default;endArrow=none;endFill=0;" parent="1" source="C4-AITVvvZgNp1ijNYnp-6" target="C4-AITVvvZgNp1ijNYnp-4" edge="1">
          <mxGeometry relative="1" as="geometry" />
        </mxCell>
        <mxCell id="C4-AITVvvZgNp1ijNYnp-6" value="Name" style="ellipse;whiteSpace=wrap;html=1;align=center;" parent="1" vertex="1">
          <mxGeometry x="-547.43" y="108.75" width="100" height="40" as="geometry" />
        </mxCell>
        <mxCell id="C4-AITVvvZgNp1ijNYnp-50" style="edgeStyle=orthogonalEdgeStyle;rounded=0;orthogonalLoop=1;jettySize=auto;html=1;exitX=0.5;exitY=0;exitDx=0;exitDy=0;entryX=0.25;entryY=1;entryDx=0;entryDy=0;curved=1;endArrow=none;endFill=0;" parent="1" source="C4-AITVvvZgNp1ijNYnp-7" target="C4-AITVvvZgNp1ijNYnp-4" edge="1">
          <mxGeometry relative="1" as="geometry" />
        </mxCell>
        <mxCell id="C4-AITVvvZgNp1ijNYnp-7" value="Semesterstunden" style="ellipse;whiteSpace=wrap;html=1;align=center;" parent="1" vertex="1">
          <mxGeometry x="-447.43" y="263.75" width="110" height="40" as="geometry" />
        </mxCell>
        <mxCell id="C4-AITVvvZgNp1ijNYnp-53" style="edgeStyle=orthogonalEdgeStyle;shape=connector;curved=1;rounded=0;orthogonalLoop=1;jettySize=auto;html=1;exitX=0;exitY=1;exitDx=0;exitDy=0;entryX=0.25;entryY=0;entryDx=0;entryDy=0;labelBackgroundColor=default;strokeColor=default;fontFamily=Helvetica;fontSize=11;fontColor=default;endArrow=none;endFill=0;" parent="1" source="C4-AITVvvZgNp1ijNYnp-8" target="C4-AITVvvZgNp1ijNYnp-4" edge="1">
          <mxGeometry relative="1" as="geometry" />
        </mxCell>
        <mxCell id="C4-AITVvvZgNp1ijNYnp-8" value="Kursnummer" style="ellipse;whiteSpace=wrap;html=1;align=center;" parent="1" vertex="1">
          <mxGeometry x="-347.43" y="83.75" width="100" height="40" as="geometry" />
        </mxCell>
        <mxCell id="C4-AITVvvZgNp1ijNYnp-52" style="edgeStyle=orthogonalEdgeStyle;shape=connector;curved=1;rounded=0;orthogonalLoop=1;jettySize=auto;html=1;exitX=0.5;exitY=1;exitDx=0;exitDy=0;labelBackgroundColor=default;strokeColor=default;fontFamily=Helvetica;fontSize=11;fontColor=default;endArrow=none;endFill=0;entryX=0;entryY=0;entryDx=0;entryDy=0;" parent="1" source="C4-AITVvvZgNp1ijNYnp-9" target="C4-AITVvvZgNp1ijNYnp-4" edge="1">
          <mxGeometry relative="1" as="geometry">
            <mxPoint x="-397.43" y="183.75" as="targetPoint" />
          </mxGeometry>
        </mxCell>
        <mxCell id="C4-AITVvvZgNp1ijNYnp-9" value="Beschreibung" style="ellipse;whiteSpace=wrap;html=1;align=center;" parent="1" vertex="1">
          <mxGeometry x="-457.43" y="53.75" width="100" height="40" as="geometry" />
        </mxCell>
        <mxCell id="C4-AITVvvZgNp1ijNYnp-62" style="edgeStyle=orthogonalEdgeStyle;shape=connector;curved=1;rounded=0;orthogonalLoop=1;jettySize=auto;html=1;exitX=0.5;exitY=1;exitDx=0;exitDy=0;entryX=0;entryY=0;entryDx=0;entryDy=0;labelBackgroundColor=default;strokeColor=default;fontFamily=Helvetica;fontSize=11;fontColor=default;endArrow=none;endFill=0;" parent="1" source="C4-AITVvvZgNp1ijNYnp-54" target="C4-AITVvvZgNp1ijNYnp-1" edge="1">
          <mxGeometry relative="1" as="geometry" />
        </mxCell>
        <mxCell id="C4-AITVvvZgNp1ijNYnp-54" value="Dozent" style="ellipse;whiteSpace=wrap;html=1;align=center;" parent="1" vertex="1">
          <mxGeometry x="-167.43" y="93.75" width="110" height="40" as="geometry" />
        </mxCell>
        <mxCell id="C4-AITVvvZgNp1ijNYnp-61" style="edgeStyle=orthogonalEdgeStyle;shape=connector;curved=1;rounded=0;orthogonalLoop=1;jettySize=auto;html=1;exitX=1;exitY=0;exitDx=0;exitDy=0;entryX=0.25;entryY=1;entryDx=0;entryDy=0;labelBackgroundColor=default;strokeColor=default;fontFamily=Helvetica;fontSize=11;fontColor=default;endArrow=none;endFill=0;" parent="1" source="C4-AITVvvZgNp1ijNYnp-55" target="C4-AITVvvZgNp1ijNYnp-1" edge="1">
          <mxGeometry relative="1" as="geometry" />
        </mxCell>
        <mxCell id="C4-AITVvvZgNp1ijNYnp-55" value="Jahr" style="ellipse;whiteSpace=wrap;html=1;align=center;" parent="1" vertex="1">
          <mxGeometry x="-227.43" y="263.75" width="110" height="40" as="geometry" />
        </mxCell>
        <mxCell id="C4-AITVvvZgNp1ijNYnp-63" style="edgeStyle=orthogonalEdgeStyle;shape=connector;curved=1;rounded=0;orthogonalLoop=1;jettySize=auto;html=1;exitX=0.5;exitY=1;exitDx=0;exitDy=0;entryX=0.5;entryY=0;entryDx=0;entryDy=0;labelBackgroundColor=default;strokeColor=default;fontFamily=Helvetica;fontSize=11;fontColor=default;endArrow=none;endFill=0;" parent="1" source="C4-AITVvvZgNp1ijNYnp-56" target="C4-AITVvvZgNp1ijNYnp-1" edge="1">
          <mxGeometry relative="1" as="geometry" />
        </mxCell>
        <mxCell id="C4-AITVvvZgNp1ijNYnp-56" value="Semester" style="ellipse;whiteSpace=wrap;html=1;align=center;" parent="1" vertex="1">
          <mxGeometry x="-37.43" y="93.75" width="110" height="40" as="geometry" />
        </mxCell>
        <mxCell id="C4-AITVvvZgNp1ijNYnp-60" style="edgeStyle=orthogonalEdgeStyle;shape=connector;curved=1;rounded=0;orthogonalLoop=1;jettySize=auto;html=1;exitX=0.5;exitY=0;exitDx=0;exitDy=0;entryX=0.5;entryY=1;entryDx=0;entryDy=0;labelBackgroundColor=default;strokeColor=default;fontFamily=Helvetica;fontSize=11;fontColor=default;endArrow=none;endFill=0;" parent="1" source="C4-AITVvvZgNp1ijNYnp-58" target="C4-AITVvvZgNp1ijNYnp-1" edge="1">
          <mxGeometry relative="1" as="geometry" />
        </mxCell>
        <mxCell id="C4-AITVvvZgNp1ijNYnp-58" value="Sektionsnummer" style="ellipse;whiteSpace=wrap;html=1;align=center;" parent="1" vertex="1">
          <mxGeometry x="-137.43" y="313.75" width="110" height="40" as="geometry" />
        </mxCell>
        <mxCell id="C4-AITVvvZgNp1ijNYnp-72" style="edgeStyle=orthogonalEdgeStyle;shape=connector;curved=1;rounded=0;orthogonalLoop=1;jettySize=auto;html=1;exitX=1;exitY=0.5;exitDx=0;exitDy=0;entryX=0;entryY=0.5;entryDx=0;entryDy=0;labelBackgroundColor=default;strokeColor=default;fontFamily=Helvetica;fontSize=11;fontColor=default;endArrow=none;endFill=0;" parent="1" source="C4-AITVvvZgNp1ijNYnp-67" target="C4-AITVvvZgNp1ijNYnp-75" edge="1">
          <mxGeometry relative="1" as="geometry" />
        </mxCell>
        <mxCell id="C4-AITVvvZgNp1ijNYnp-67" value="Note" style="whiteSpace=wrap;html=1;align=center;" parent="1" vertex="1">
          <mxGeometry x="-1570" y="183.75" width="100" height="40" as="geometry" />
        </mxCell>
        <mxCell id="C4-AITVvvZgNp1ijNYnp-74" style="edgeStyle=orthogonalEdgeStyle;shape=connector;curved=1;rounded=0;orthogonalLoop=1;jettySize=auto;html=1;exitX=0.5;exitY=0;exitDx=0;exitDy=0;entryX=0.5;entryY=1;entryDx=0;entryDy=0;labelBackgroundColor=default;strokeColor=default;fontFamily=Helvetica;fontSize=11;fontColor=default;endArrow=none;endFill=0;" parent="1" source="C4-AITVvvZgNp1ijNYnp-70" target="C4-AITVvvZgNp1ijNYnp-67" edge="1">
          <mxGeometry relative="1" as="geometry" />
        </mxCell>
        <mxCell id="C4-AITVvvZgNp1ijNYnp-70" value="Note" style="ellipse;whiteSpace=wrap;html=1;align=center;" parent="1" vertex="1">
          <mxGeometry x="-1580" y="266.25" width="120" height="40" as="geometry" />
        </mxCell>
        <mxCell id="C4-AITVvvZgNp1ijNYnp-115" style="edgeStyle=orthogonalEdgeStyle;shape=connector;curved=1;rounded=0;orthogonalLoop=1;jettySize=auto;html=1;exitX=1;exitY=0.5;exitDx=0;exitDy=0;entryX=0;entryY=0.5;entryDx=0;entryDy=0;labelBackgroundColor=default;strokeColor=default;fontFamily=Helvetica;fontSize=11;fontColor=default;endArrow=none;endFill=0;" parent="1" source="C4-AITVvvZgNp1ijNYnp-75" target="C4-AITVvvZgNp1ijNYnp-4" edge="1">
          <mxGeometry relative="1" as="geometry" />
        </mxCell>
        <mxCell id="C4-AITVvvZgNp1ijNYnp-75" value="Student" style="whiteSpace=wrap;html=1;align=center;" parent="1" vertex="1">
          <mxGeometry x="-982.4300000000001" y="185" width="100" height="40" as="geometry" />
        </mxCell>
        <mxCell id="C4-AITVvvZgNp1ijNYnp-76" style="edgeStyle=orthogonalEdgeStyle;rounded=0;orthogonalLoop=1;jettySize=auto;html=1;exitX=1;exitY=0.5;exitDx=0;exitDy=0;entryX=0;entryY=1;entryDx=0;entryDy=0;curved=1;endArrow=none;endFill=0;" parent="1" source="C4-AITVvvZgNp1ijNYnp-77" target="C4-AITVvvZgNp1ijNYnp-75" edge="1">
          <mxGeometry relative="1" as="geometry" />
        </mxCell>
        <mxCell id="C4-AITVvvZgNp1ijNYnp-77" value="Geschlecht" style="ellipse;whiteSpace=wrap;html=1;align=center;" parent="1" vertex="1">
          <mxGeometry x="-1137.43" y="285" width="100" height="40" as="geometry" />
        </mxCell>
        <mxCell id="C4-AITVvvZgNp1ijNYnp-78" style="edgeStyle=orthogonalEdgeStyle;rounded=0;orthogonalLoop=1;jettySize=auto;html=1;exitX=1;exitY=0.5;exitDx=0;exitDy=0;entryX=0;entryY=0.75;entryDx=0;entryDy=0;endArrow=none;endFill=0;curved=1;" parent="1" source="C4-AITVvvZgNp1ijNYnp-79" target="C4-AITVvvZgNp1ijNYnp-75" edge="1">
          <mxGeometry relative="1" as="geometry" />
        </mxCell>
        <mxCell id="C4-AITVvvZgNp1ijNYnp-79" value="Matrikelnumber" style="ellipse;whiteSpace=wrap;html=1;align=center;" parent="1" vertex="1">
          <mxGeometry x="-1137.43" y="225" width="100" height="40" as="geometry" />
        </mxCell>
        <mxCell id="C4-AITVvvZgNp1ijNYnp-80" style="edgeStyle=orthogonalEdgeStyle;rounded=0;orthogonalLoop=1;jettySize=auto;html=1;exitX=0;exitY=0.5;exitDx=0;exitDy=0;entryX=1;entryY=0;entryDx=0;entryDy=0;curved=1;endArrow=none;endFill=0;" parent="1" source="C4-AITVvvZgNp1ijNYnp-81" target="C4-AITVvvZgNp1ijNYnp-75" edge="1">
          <mxGeometry relative="1" as="geometry" />
        </mxCell>
        <mxCell id="C4-AITVvvZgNp1ijNYnp-81" value="SSN" style="ellipse;whiteSpace=wrap;html=1;align=center;" parent="1" vertex="1">
          <mxGeometry x="-816.4300000000001" y="145" width="100" height="40" as="geometry" />
        </mxCell>
        <mxCell id="C4-AITVvvZgNp1ijNYnp-82" style="edgeStyle=orthogonalEdgeStyle;rounded=0;orthogonalLoop=1;jettySize=auto;html=1;exitX=1;exitY=0.5;exitDx=0;exitDy=0;entryX=0;entryY=0;entryDx=0;entryDy=0;curved=1;endArrow=none;endFill=0;" parent="1" source="C4-AITVvvZgNp1ijNYnp-83" target="C4-AITVvvZgNp1ijNYnp-75" edge="1">
          <mxGeometry relative="1" as="geometry" />
        </mxCell>
        <mxCell id="C4-AITVvvZgNp1ijNYnp-83" value="Degree_Programm" style="ellipse;whiteSpace=wrap;html=1;align=center;" parent="1" vertex="1">
          <mxGeometry x="-1137.43" y="130" width="130" height="40" as="geometry" />
        </mxCell>
        <mxCell id="C4-AITVvvZgNp1ijNYnp-84" style="edgeStyle=orthogonalEdgeStyle;rounded=0;orthogonalLoop=1;jettySize=auto;html=1;exitX=0;exitY=1;exitDx=0;exitDy=0;curved=1;endArrow=none;endFill=0;" parent="1" source="C4-AITVvvZgNp1ijNYnp-85" edge="1">
          <mxGeometry relative="1" as="geometry">
            <mxPoint x="-922.4300000000001" y="185" as="targetPoint" />
          </mxGeometry>
        </mxCell>
        <mxCell id="C4-AITVvvZgNp1ijNYnp-85" value="Geburtsdatum" style="ellipse;whiteSpace=wrap;html=1;align=center;" parent="1" vertex="1">
          <mxGeometry x="-922.4300000000001" y="35" width="100" height="40" as="geometry" />
        </mxCell>
        <mxCell id="C4-AITVvvZgNp1ijNYnp-86" style="edgeStyle=orthogonalEdgeStyle;rounded=0;orthogonalLoop=1;jettySize=auto;html=1;exitX=0;exitY=0;exitDx=0;exitDy=0;entryX=0.5;entryY=1;entryDx=0;entryDy=0;curved=1;endArrow=none;endFill=0;" parent="1" source="C4-AITVvvZgNp1ijNYnp-91" target="C4-AITVvvZgNp1ijNYnp-75" edge="1">
          <mxGeometry relative="1" as="geometry" />
        </mxCell>
        <mxCell id="C4-AITVvvZgNp1ijNYnp-87" style="edgeStyle=orthogonalEdgeStyle;rounded=0;orthogonalLoop=1;jettySize=auto;html=1;exitX=0;exitY=1;exitDx=0;exitDy=0;entryX=1;entryY=0;entryDx=0;entryDy=0;curved=1;endArrow=none;endFill=0;" parent="1" source="C4-AITVvvZgNp1ijNYnp-91" target="C4-AITVvvZgNp1ijNYnp-111" edge="1">
          <mxGeometry relative="1" as="geometry" />
        </mxCell>
        <mxCell id="C4-AITVvvZgNp1ijNYnp-88" style="edgeStyle=orthogonalEdgeStyle;rounded=0;orthogonalLoop=1;jettySize=auto;html=1;exitX=0.5;exitY=1;exitDx=0;exitDy=0;entryX=0.5;entryY=0;entryDx=0;entryDy=0;curved=1;endArrow=none;endFill=0;" parent="1" source="C4-AITVvvZgNp1ijNYnp-91" target="C4-AITVvvZgNp1ijNYnp-112" edge="1">
          <mxGeometry relative="1" as="geometry" />
        </mxCell>
        <mxCell id="C4-AITVvvZgNp1ijNYnp-89" style="edgeStyle=orthogonalEdgeStyle;rounded=0;orthogonalLoop=1;jettySize=auto;html=1;exitX=1;exitY=1;exitDx=0;exitDy=0;entryX=0;entryY=0;entryDx=0;entryDy=0;endArrow=none;endFill=0;curved=1;" parent="1" source="C4-AITVvvZgNp1ijNYnp-91" target="C4-AITVvvZgNp1ijNYnp-114" edge="1">
          <mxGeometry relative="1" as="geometry" />
        </mxCell>
        <mxCell id="C4-AITVvvZgNp1ijNYnp-90" style="edgeStyle=orthogonalEdgeStyle;rounded=0;orthogonalLoop=1;jettySize=auto;html=1;exitX=1;exitY=0.5;exitDx=0;exitDy=0;entryX=0;entryY=0;entryDx=0;entryDy=0;curved=1;endArrow=none;endFill=0;" parent="1" source="C4-AITVvvZgNp1ijNYnp-91" target="C4-AITVvvZgNp1ijNYnp-113" edge="1">
          <mxGeometry relative="1" as="geometry" />
        </mxCell>
        <mxCell id="C4-AITVvvZgNp1ijNYnp-91" value="Vorübergehende_Adresse" style="ellipse;whiteSpace=wrap;html=1;align=center;" parent="1" vertex="1">
          <mxGeometry x="-713.4300000000001" y="347.5" width="166" height="45" as="geometry" />
        </mxCell>
        <mxCell id="C4-AITVvvZgNp1ijNYnp-92" style="edgeStyle=orthogonalEdgeStyle;rounded=0;orthogonalLoop=1;jettySize=auto;html=1;exitX=1;exitY=0;exitDx=0;exitDy=0;entryX=0.25;entryY=1;entryDx=0;entryDy=0;curved=1;endArrow=none;endFill=0;" parent="1" source="C4-AITVvvZgNp1ijNYnp-94" target="C4-AITVvvZgNp1ijNYnp-75" edge="1">
          <mxGeometry relative="1" as="geometry" />
        </mxCell>
        <mxCell id="C4-AITVvvZgNp1ijNYnp-93" style="edgeStyle=orthogonalEdgeStyle;rounded=0;orthogonalLoop=1;jettySize=auto;html=1;exitX=0.5;exitY=1;exitDx=0;exitDy=0;entryX=0;entryY=0;entryDx=0;entryDy=0;endArrow=none;endFill=0;curved=1;" parent="1" source="C4-AITVvvZgNp1ijNYnp-94" target="C4-AITVvvZgNp1ijNYnp-106" edge="1">
          <mxGeometry relative="1" as="geometry" />
        </mxCell>
        <mxCell id="C4-AITVvvZgNp1ijNYnp-94" value="Ständige_Adresse" style="ellipse;whiteSpace=wrap;html=1;align=center;" parent="1" vertex="1">
          <mxGeometry x="-1137.43" y="350" width="120" height="40" as="geometry" />
        </mxCell>
        <mxCell id="C4-AITVvvZgNp1ijNYnp-95" style="edgeStyle=orthogonalEdgeStyle;rounded=0;orthogonalLoop=1;jettySize=auto;html=1;exitX=0;exitY=0.5;exitDx=0;exitDy=0;entryX=0.75;entryY=0;entryDx=0;entryDy=0;curved=1;endArrow=none;endFill=0;" parent="1" source="C4-AITVvvZgNp1ijNYnp-96" target="C4-AITVvvZgNp1ijNYnp-75" edge="1">
          <mxGeometry relative="1" as="geometry" />
        </mxCell>
        <mxCell id="C4-AITVvvZgNp1ijNYnp-96" value="Vorübergehende_&amp;nbsp;Telefonnummer" style="ellipse;whiteSpace=wrap;html=1;align=center;" parent="1" vertex="1">
          <mxGeometry x="-842.4300000000001" y="85" width="210" height="45" as="geometry" />
        </mxCell>
        <mxCell id="C4-AITVvvZgNp1ijNYnp-97" style="edgeStyle=orthogonalEdgeStyle;rounded=0;orthogonalLoop=1;jettySize=auto;html=1;exitX=1;exitY=0.5;exitDx=0;exitDy=0;entryX=0.25;entryY=0;entryDx=0;entryDy=0;curved=1;endArrow=none;endFill=0;" parent="1" source="C4-AITVvvZgNp1ijNYnp-98" target="C4-AITVvvZgNp1ijNYnp-75" edge="1">
          <mxGeometry relative="1" as="geometry">
            <Array as="points">
              <mxPoint x="-947.4300000000001" y="95" />
              <mxPoint x="-947.4300000000001" y="150" />
              <mxPoint x="-952.4300000000001" y="150" />
              <mxPoint x="-952.4300000000001" y="185" />
            </Array>
          </mxGeometry>
        </mxCell>
        <mxCell id="C4-AITVvvZgNp1ijNYnp-98" value="Ständige_Telefonnummer" style="ellipse;whiteSpace=wrap;html=1;align=center;" parent="1" vertex="1">
          <mxGeometry x="-1137.43" y="75" width="170" height="40" as="geometry" />
        </mxCell>
        <mxCell id="C4-AITVvvZgNp1ijNYnp-99" style="edgeStyle=orthogonalEdgeStyle;rounded=0;orthogonalLoop=1;jettySize=auto;html=1;exitX=0;exitY=0.5;exitDx=0;exitDy=0;entryX=1;entryY=0.5;entryDx=0;entryDy=0;curved=1;endArrow=none;endFill=0;" parent="1" source="C4-AITVvvZgNp1ijNYnp-100" target="C4-AITVvvZgNp1ijNYnp-75" edge="1">
          <mxGeometry relative="1" as="geometry" />
        </mxCell>
        <mxCell id="C4-AITVvvZgNp1ijNYnp-100" value="Vorname" style="ellipse;whiteSpace=wrap;html=1;align=center;" parent="1" vertex="1">
          <mxGeometry x="-802.4300000000001" y="235" width="100" height="40" as="geometry" />
        </mxCell>
        <mxCell id="C4-AITVvvZgNp1ijNYnp-101" style="edgeStyle=orthogonalEdgeStyle;rounded=0;orthogonalLoop=1;jettySize=auto;html=1;exitX=0;exitY=0.5;exitDx=0;exitDy=0;entryX=1;entryY=0.75;entryDx=0;entryDy=0;curved=1;endArrow=none;endFill=0;" parent="1" source="C4-AITVvvZgNp1ijNYnp-102" target="C4-AITVvvZgNp1ijNYnp-75" edge="1">
          <mxGeometry relative="1" as="geometry" />
        </mxCell>
        <mxCell id="C4-AITVvvZgNp1ijNYnp-102" value="Nachname" style="ellipse;whiteSpace=wrap;html=1;align=center;" parent="1" vertex="1">
          <mxGeometry x="-802.4300000000001" y="285" width="100" height="40" as="geometry" />
        </mxCell>
        <mxCell id="C4-AITVvvZgNp1ijNYnp-103" style="edgeStyle=orthogonalEdgeStyle;rounded=0;orthogonalLoop=1;jettySize=auto;html=1;exitX=0.5;exitY=1;exitDx=0;exitDy=0;" parent="1" source="C4-AITVvvZgNp1ijNYnp-94" target="C4-AITVvvZgNp1ijNYnp-94" edge="1">
          <mxGeometry relative="1" as="geometry" />
        </mxCell>
        <mxCell id="C4-AITVvvZgNp1ijNYnp-104" style="edgeStyle=orthogonalEdgeStyle;rounded=0;orthogonalLoop=1;jettySize=auto;html=1;exitX=1;exitY=0;exitDx=0;exitDy=0;entryX=0;entryY=1;entryDx=0;entryDy=0;curved=1;endArrow=none;endFill=0;" parent="1" target="C4-AITVvvZgNp1ijNYnp-94" edge="1">
          <mxGeometry relative="1" as="geometry">
            <mxPoint x="-1180.0035931288073" y="410.85786437626894" as="sourcePoint" />
          </mxGeometry>
        </mxCell>
        <mxCell id="C4-AITVvvZgNp1ijNYnp-105" value="Stadt" style="ellipse;whiteSpace=wrap;html=1;align=center;" parent="1" vertex="1">
          <mxGeometry x="-1300" y="390" width="120" height="40" as="geometry" />
        </mxCell>
        <mxCell id="C4-AITVvvZgNp1ijNYnp-106" value="Strasse" style="ellipse;whiteSpace=wrap;html=1;align=center;" parent="1" vertex="1">
          <mxGeometry x="-1162.43" y="465" width="120" height="40" as="geometry" />
        </mxCell>
        <mxCell id="C4-AITVvvZgNp1ijNYnp-107" style="edgeStyle=orthogonalEdgeStyle;rounded=0;orthogonalLoop=1;jettySize=auto;html=1;exitX=0;exitY=0;exitDx=0;exitDy=0;entryX=1;entryY=0.5;entryDx=0;entryDy=0;curved=1;endArrow=none;endFill=0;" parent="1" source="C4-AITVvvZgNp1ijNYnp-108" target="C4-AITVvvZgNp1ijNYnp-94" edge="1">
          <mxGeometry relative="1" as="geometry" />
        </mxCell>
        <mxCell id="C4-AITVvvZgNp1ijNYnp-108" value="Nummer" style="ellipse;whiteSpace=wrap;html=1;align=center;" parent="1" vertex="1">
          <mxGeometry x="-1007.4300000000001" y="425" width="120" height="40" as="geometry" />
        </mxCell>
        <mxCell id="C4-AITVvvZgNp1ijNYnp-109" style="edgeStyle=orthogonalEdgeStyle;rounded=0;orthogonalLoop=1;jettySize=auto;html=1;exitX=0;exitY=0;exitDx=0;exitDy=0;entryX=1;entryY=1;entryDx=0;entryDy=0;curved=1;endArrow=none;endFill=0;" parent="1" source="C4-AITVvvZgNp1ijNYnp-110" target="C4-AITVvvZgNp1ijNYnp-94" edge="1">
          <mxGeometry relative="1" as="geometry" />
        </mxCell>
        <mxCell id="C4-AITVvvZgNp1ijNYnp-110" value="Land" style="ellipse;whiteSpace=wrap;html=1;align=center;" parent="1" vertex="1">
          <mxGeometry x="-1042.43" y="485" width="120" height="40" as="geometry" />
        </mxCell>
        <mxCell id="C4-AITVvvZgNp1ijNYnp-111" value="Stadt" style="ellipse;whiteSpace=wrap;html=1;align=center;" parent="1" vertex="1">
          <mxGeometry x="-822.4300000000001" y="425" width="120" height="40" as="geometry" />
        </mxCell>
        <mxCell id="C4-AITVvvZgNp1ijNYnp-112" value="Strasse" style="ellipse;whiteSpace=wrap;html=1;align=center;" parent="1" vertex="1">
          <mxGeometry x="-702.4300000000001" y="485" width="120" height="40" as="geometry" />
        </mxCell>
        <mxCell id="C4-AITVvvZgNp1ijNYnp-113" value="Nummer" style="ellipse;whiteSpace=wrap;html=1;align=center;" parent="1" vertex="1">
          <mxGeometry x="-547.4300000000001" y="445" width="120" height="40" as="geometry" />
        </mxCell>
        <mxCell id="C4-AITVvvZgNp1ijNYnp-114" value="Land" style="ellipse;whiteSpace=wrap;html=1;align=center;" parent="1" vertex="1">
          <mxGeometry x="-582.4300000000001" y="505" width="120" height="40" as="geometry" />
        </mxCell>
      </root>
    </mxGraphModel>
  </diagram>
</mxfile>
